<svg width="300" height="300" viewBox="0 0 300 300" fill="none" xmlns="http://www.w3.org/2000/svg">
<path d="M0 290C0 295.523 4.47715 300 10 300H90C95.5228 300 100.053 295.51 99.5076 290.014C94.8225 242.759 57.2414 205.177 9.986 200.492C4.4901 199.947 0 204.477 0 210V290Z" fill="#52525B"/>
<path d="M300 10C300 4.47715 295.523 0 290 0H210C204.477 0 199.947 4.4901 200.492 9.986C205.177 57.2414 242.759 94.8225 290.014 99.5076C295.51 100.053 300 95.5228 300 90V10Z" fill="#52525B"/>
<path d="M100 10C100 4.47715 95.5228 0 90 0H10C4.47715 0 0 4.47715 0 10V95.8579C0 98.51 1.05357 101.054 2.92893 102.929L97.0711 197.071C98.9464 198.946 101.49 200 104.142 200H190C195.523 200 200 204.477 200 210V290C200 295.523 204.477 300 210 300H290C295.523 300 300 295.523 300 290V204.142C300 201.49 298.946 198.946 297.071 197.071L202.929 102.929C201.054 101.054 198.51 100 195.858 100H110C104.477 100 100 95.5228 100 90V10Z" fill="#52525B"/>
</svg>
